<svg width="500" height="500" viewBox="0 0 500 500" fill="none" xmlns="http://www.w3.org/2000/svg">
<rect width="500" height="500" rx="50" fill="url(#paint0_linear_24_10)"/>
<path d="M136.535 60.5204C133.614 58.3242 130 63.5579 130 67.3005V197.414C130 266.93 160.913 311.805 186.849 337.206C214.804 364.598 242.913 375.636 244.092 376.09L247.5 377.409C248.068 377.629 248.66 377.737 249.255 377.787V377.835C249.339 377.834 249.423 377.814 249.508 377.81C249.587 377.814 249.666 377.833 249.745 377.833V377.788C250.34 377.739 250.932 377.631 251.5 377.411L254.908 376.091C256.087 375.637 284.196 364.599 312.151 337.208C338.087 311.806 369 266.932 369 197.415V67.3021C369 63.5594 366.072 60.5219 362.465 60.5219L251.33 146.836L136.535 60.5204ZM162.674 124.305L250.839 193.167L336.326 124.307V198.741C336.326 292.075 269.997 332.585 249.501 342.874C229.007 332.587 162.674 292.076 162.674 198.739V124.305Z" fill="white"/>
<line x1="369" y1="414.303" x2="130" y2="414.303" stroke="white" stroke-width="25"/>
<defs>
<linearGradient id="paint0_linear_24_10" x1="250" y1="0" x2="250" y2="500" gradientUnits="userSpaceOnUse">
<stop stop-color="#216AD7"/>
<stop offset="1" stop-color="#1A2152"/>
</linearGradient>
</defs>
</svg>
